<svg id="Group_73" data-name="Group 73" xmlns="http://www.w3.org/2000/svg" width="196" height="95.385" viewBox="0 0 196 95.385">
  <path id="Path_1" data-name="Path 1" d="M0,140.594c0-8.194,4.925-13.189,11.66-13.189a9.859,9.859,0,0,1,7.326,3.133l-1.772,2.1a7.177,7.177,0,0,0-5.469-2.4c-5.117,0-8.407,3.933-8.407,10.261,0,6.386,3.02,10.388,8.439,10.388a6.878,6.878,0,0,0,4.577-1.492v-6.615H10.976V140.11H19.3v10.678a10.836,10.836,0,0,1-7.831,2.95C4.771,153.738,0,148.844,0,140.594" transform="translate(0 -77.889)" fill="#fff"/>
  <path id="Path_2" data-name="Path 2" d="M64.341,146.819v-23.8h3.184v24.029c0,.973.423,1.361.888,1.361a2.743,2.743,0,0,0,.7-.078l.432,2.431a5.11,5.11,0,0,1-1.832.3c-2.386,0-3.368-1.523-3.368-4.243" transform="translate(-39.279 -75.212)" fill="#fff"/>
  <path id="Path_3" data-name="Path 3" d="M86.69,158.716c0-4.1,3.536-6.148,11.556-7.02-.008-2.421-.811-4.752-3.884-4.752a10.373,10.373,0,0,0-5.611,2.017l-1.245-2.182a13.8,13.8,0,0,1,7.39-2.457c4.592,0,6.535,3.051,6.535,7.736V163.6H98.8l-.268-2.249h-.106a10,10,0,0,1-6.223,2.714c-3.149,0-5.512-1.955-5.512-5.349m11.556.294v-5.225c-6.306.758-8.437,2.3-8.437,4.707,0,2.138,1.451,3.008,3.3,3.008,1.818,0,3.318-.884,5.14-2.49" transform="translate(-52.982 -88.22)" fill="#fff"/>
  <path id="Path_4" data-name="Path 4" d="M136.181,154.217c0-6.278,4.241-9.9,9.052-9.9a7.9,7.9,0,0,1,5.5,2.208l-1.629,2.1a5.445,5.445,0,0,0-3.732-1.662c-3.407,0-5.905,2.934-5.905,7.245s2.359,7.2,5.82,7.2a6.78,6.78,0,0,0,4.418-1.875l1.38,2.134a9.149,9.149,0,0,1-6.083,2.391c-5.007,0-8.825-3.618-8.825-9.847" transform="translate(-83.229 -88.22)" fill="#fff"/>
  <rect id="Rectangle_1" data-name="Rectangle 1" width="3.184" height="18.815" transform="translate(71.977 56.566)" fill="#fff"/>
  <path id="Path_5" data-name="Path 5" d="M205.946,154.217c0-6.124,4.126-9.9,8.458-9.9,4.8,0,7.509,3.446,7.509,8.828a10.086,10.086,0,0,1-.149,1.808H209.093c.229,3.986,2.665,6.57,6.252,6.57a8.227,8.227,0,0,0,4.682-1.5l1.14,2.089a11.06,11.06,0,0,1-6.213,1.951c-5.015,0-9.007-3.667-9.007-9.847m13.152-1.539c0-3.771-1.7-5.82-4.638-5.82-2.645,0-5.008,2.123-5.4,5.82Z" transform="translate(-125.867 -88.22)" fill="#fff"/>
  <path id="Path_6" data-name="Path 6" d="M258.825,144.785h2.63l.269,3.427h.106c1.31-2.388,3.233-3.891,5.35-3.891a4.372,4.372,0,0,1,2.008.387l-.594,2.793a5.265,5.265,0,0,0-1.825-.309c-1.589,0-3.489,1.145-4.759,4.328V163.6h-3.184Z" transform="translate(-158.18 -88.219)" fill="#fff"/>
  <path id="Path_7" data-name="Path 7" d="M294.07,128.6h7.255c5.692,0,9.533,1.914,9.533,7.48,0,5.347-3.82,7.846-9.378,7.846H297.3V154H294.07Zm7,12.7c4.443,0,6.562-1.609,6.562-5.224,0-3.664-2.253-4.858-6.716-4.858H297.3V141.3Z" transform="translate(-179.727 -78.617)" fill="#fff"/>
  <path id="Path_8" data-name="Path 8" d="M343.585,154.217c0-6.278,4.106-9.9,8.719-9.9s8.718,3.618,8.718,9.9c0,6.23-4.106,9.847-8.718,9.847s-8.719-3.618-8.719-9.847m14.147,0c0-4.311-2.193-7.245-5.429-7.245s-5.429,2.934-5.429,7.245,2.192,7.2,5.429,7.2,5.429-2.886,5.429-7.2" transform="translate(-209.99 -88.22)" fill="#fff"/>
  <rect id="Rectangle_2" data-name="Rectangle 2" width="3.184" height="18.815" transform="translate(155.955 56.566)" fill="#fff"/>
  <path id="Path_9" data-name="Path 9" d="M425.484,144.785h2.63l.269,2.713h.106c1.793-1.764,3.729-3.178,6.311-3.178,3.965,0,5.745,2.558,5.745,7.358V163.6h-3.183V152.09c0-3.5-1.061-5-3.551-5-1.924,0-3.256.982-5.143,2.89V163.6h-3.184Z" transform="translate(-260.067 -88.219)" fill="#fff"/>
  <path id="Path_10" data-name="Path 10" d="M476.89,150.241v-10.4h-2.8v-2.41l2.942-.183.383-5.276h2.659v5.276h5.1v2.593h-5.1V150.3c0,2.3.741,3.633,2.91,3.633a6.279,6.279,0,0,0,2.142-.505l.615,2.4a11.321,11.321,0,0,1-3.49.7c-4,0-5.361-2.538-5.361-6.281" transform="translate(-289.741 -80.675)" fill="#fff"/>
  <path id="Path_11" data-name="Path 11" d="M92.98,220.89h5.376v1H94.166v2.923H97.7v1H94.166v3.391H98.5v1H92.98Z" transform="translate(-56.823 -135.004)" fill="#fff"/>
  <path id="Path_12" data-name="Path 12" d="M123.544,220.89h1.226l3.376,5.864,1.006,1.931h.057c-.06-.941-.152-1.992-.152-2.968V220.89h1.127v9.327H128.96l-3.376-5.869-1.007-1.926h-.057c.06.944.151,1.938.151,2.914v4.881h-1.127Z" transform="translate(-75.502 -135.003)" fill="#fff"/>
  <path id="Path_13" data-name="Path 13" d="M159.049,221.895h-2.822v-1h6.83v1h-2.822v8.322h-1.187Z" transform="translate(-95.476 -135.004)" fill="#fff"/>
  <path id="Path_14" data-name="Path 14" d="M189.379,220.89h5.376v1h-4.189v2.923H194.1v1h-3.534v3.391H194.9v1h-5.518Z" transform="translate(-115.735 -135.004)" fill="#fff"/>
  <path id="Path_15" data-name="Path 15" d="M219.943,220.89h2.921c1.9,0,3.264.682,3.264,2.625,0,1.863-1.364,2.76-3.264,2.76H221.13v3.942h-1.187Zm2.751,4.422c1.451,0,2.251-.588,2.251-1.8,0-1.227-.8-1.662-2.251-1.662H221.13v3.459Zm-.063.638.93-.614,2.846,4.882h-1.345Z" transform="translate(-134.414 -135.003)" fill="#fff"/>
  <path id="Path_16" data-name="Path 16" d="M252.04,220.89H254.7c2.09,0,3.5.7,3.5,2.746,0,1.963-1.4,2.881-3.443,2.881h-1.534v3.7H252.04Zm2.571,4.665c1.631,0,2.409-.591,2.409-1.918,0-1.345-.828-1.784-2.466-1.784h-1.327v3.7Z" transform="translate(-154.03 -135.003)" fill="#fff"/>
  <path id="Path_17" data-name="Path 17" d="M284.027,220.89h2.921c1.9,0,3.263.682,3.263,2.625,0,1.863-1.364,2.76-3.263,2.76h-1.735v3.942h-1.187Zm2.751,4.422c1.451,0,2.25-.588,2.25-1.8,0-1.227-.8-1.662-2.25-1.662h-1.564v3.459Zm-.064.638.93-.614,2.845,4.882h-1.345Z" transform="translate(-173.578 -135.003)" fill="#fff"/>
  <rect id="Rectangle_3" data-name="Rectangle 3" width="1.187" height="9.327" transform="translate(122.936 85.887)" fill="#fff"/>
  <path id="Path_18" data-name="Path 18" d="M335.323,228.737l.71-.815a3.643,3.643,0,0,0,2.573,1.156c1.224,0,1.95-.61,1.95-1.516,0-.952-.675-1.256-1.556-1.641l-1.34-.59a2.628,2.628,0,0,1-1.888-2.4,2.654,2.654,0,0,1,2.937-2.475,3.85,3.85,0,0,1,2.746,1.155l-.63.762a2.982,2.982,0,0,0-2.116-.874c-1.046,0-1.739.528-1.739,1.362,0,.9.813,1.235,1.544,1.544l1.329.575a2.6,2.6,0,0,1,1.922,2.493c0,1.474-1.218,2.651-3.178,2.651a4.471,4.471,0,0,1-3.263-1.385" transform="translate(-204.927 -134.737)" fill="#fff"/>
  <path id="Path_19" data-name="Path 19" d="M367.879,220.89h5.376v1h-4.189v2.923H372.6v1h-3.534v3.391H373.4v1h-5.518Z" transform="translate(-224.822 -135.004)" fill="#fff"/>
  <path id="Path_20" data-name="Path 20" d="M396.708,228.737l.71-.815a3.643,3.643,0,0,0,2.573,1.156c1.224,0,1.949-.61,1.949-1.516,0-.952-.675-1.256-1.556-1.641l-1.34-.59a2.628,2.628,0,0,1-1.888-2.4,2.654,2.654,0,0,1,2.937-2.475,3.85,3.85,0,0,1,2.746,1.155l-.63.762a2.983,2.983,0,0,0-2.116-.874c-1.046,0-1.739.528-1.739,1.362,0,.9.813,1.235,1.544,1.544l1.329.575a2.6,2.6,0,0,1,1.922,2.493c0,1.474-1.218,2.651-3.179,2.651a4.471,4.471,0,0,1-3.263-1.385" transform="translate(-242.441 -134.737)" fill="#fff"/>
  <path id="Path_21" data-name="Path 21" d="M178.738,97.007a4.945,4.945,0,1,0,4.945-4.945,4.944,4.944,0,0,0-4.945,4.945" transform="translate(-109.235 -56.267)" fill="#fff"/>
  <path id="Path_22" data-name="Path 22" d="M313.99,97.007a4.945,4.945,0,1,0,4.945-4.945,4.944,4.944,0,0,0-4.945,4.945" transform="translate(-191.893 -56.267)" fill="#fff"/>
  <path id="Path_23" data-name="Path 23" d="M266.654,36.259a7.161,7.161,0,0,1,6.946-2.512.556.556,0,0,0-.051-.733L257.8,17.266a.562.562,0,0,0-.794,0l-7.775,7.775a.562.562,0,0,1-.794,0L223.87.475a1.625,1.625,0,0,0-2.3,0L192.229,29.818l-3.9,3.9a7.142,7.142,0,0,1,8.384,6.722.544.544,0,0,0,.448-.157L213,24.441a1.116,1.116,0,0,1,1.579,0l7.3,7.3a.562.562,0,0,0,.794,0l7.681-7.681a.562.562,0,0,1,.8.011l9.265,9.775h.006a7.111,7.111,0,0,1,7.14,2.174.561.561,0,0,0,.518-.148l3.3-3.3a.562.562,0,0,1,.794,0l4.546,4.546a.562.562,0,0,0,.794,0l4.546-4.546a.562.562,0,0,1,.794,0l3.549,3.549a.554.554,0,0,0,.242.135" transform="translate(-115.179 0.001)" fill="#fff"/>
  <path id="Path_24" data-name="Path 24" d="M391.017,97.007a4.945,4.945,0,1,0,4.945-4.945,4.944,4.944,0,0,0-4.945,4.945" transform="translate(-238.968 -56.267)" fill="#fff"/>
</svg>
